<?xml version="1.0" encoding="UTF-8"?>
<svg id="Capa_1" xmlns="http://www.w3.org/2000/svg" version="1.1" viewBox="0 0 389.4 259.1">
  <defs>
    <style>
      .st0 {
        fill: none;
        stroke: currentColor;
        stroke-miterlimit: 10;
        stroke-width: 12px;
      }
    </style>
  </defs>
  <g>
    <path class="st0" d="M171.7,164.3c9.5-28.5,17.1-47.7,23.2-61.4,1.6-3.5,4.1-9,1.7-12.3-4.7-6.6-25.4.3-42.2,7.1-78.6,32.9-96.1,49-94.1,57.5,1.6,6.7,16.5,13.5,29.3,10.8,7.8-1.7,13-6.5,15.8-9.5"/>
    <path class="st0" d="M186.1,125c16.5-8.3,29.6-15.6,38.7-20.9,10.1-5.8,17.2-10.7,20.1-8.4,2.9,2.4-.2,10.3-3.3,18.7-4.1,11.2-9.9,27.2-16.5,47.7"/>
    <path class="st0" d="M308.7,151.4c-17.4,1.8-23.1-1-24.7-4.3-2.1-4.3,2.6-9.7,13-29.9,9.1-17.8,8.6-19.7,7.9-20.5-2.5-2.7-11.7,2.4-39.5,17.3-12.7,6.8-22.8,12.2-28.2,15.1"/>
  </g>
  <ellipse class="st0" cx="194.7" cy="129.6" rx="188.7" ry="123.6"/>
</svg>
